<?xml version="1.0" encoding="UTF-8" standalone="no"?><svg xmlns="http://www.w3.org/2000/svg" xmlns:xlink="http://www.w3.org/1999/xlink" contentScriptType="text/ecmascript" zoomAndPan="magnify" contentStyleType="text/css" stroke="#000000" stroke-linecap="square" version="1" width="99" stroke-miterlimit="10" fill="#000000" preserveAspectRatio="xMidYMid meet" viewBox="0 0 99.35 95.39" height="95"><defs><clipPath id="a"><path d="M0 0V95.39H99.35V0Z"></path></clipPath><clipPath id="b" clip-path="url(#a)"><path d="M-1230.66 171.64h1440v-810h-1440Z"></path></clipPath><clipPath id="c" clip-path="url(#b)"><path d="M-1230.66-638.36h1440v810h-1440Z"></path></clipPath><clipPath id="d" clip-path="url(#c)"><path d="M4.86 4.84H95.58V91H4.86Z"></path></clipPath><clipPath id="k" clip-path="url(#d)"><path d="M34.62 5H94.83V90.39H34.62Z"></path></clipPath><clipPath id="e"><path d="M0 0V95.39H99.35V0Z"></path></clipPath><clipPath id="f" clip-path="url(#e)"><path d="M-1230.66 171.64h1440v-810h-1440Z"></path></clipPath><clipPath id="g" clip-path="url(#f)"><path d="M-1230.66-638.36h1440v810h-1440Z"></path></clipPath><clipPath id="h" clip-path="url(#g)"><path d="M4.86 4.84H95.58V91H4.86Z"></path></clipPath><clipPath id="i" clip-path="url(#h)"><path d="M5 29.47H41.69V66.16H5Z"></path></clipPath><clipPath id="j" clip-path="url(#i)"><path d="M23.34 29.47C13.21 29.47 5 37.69 5 47.82s8.21 18.34 18.34 18.34 18.34-8.21 18.34-18.34-8.21-18.34-18.34-18.34Z"></path></clipPath><clipPath id="l" clip-path="url(#j)"><path d="M4.86 29.32H41.82V66.28H4.86Z"></path></clipPath></defs><g><g fill="#ffffff" stroke="none"><path d="M-66.16 5V26.41l27.62 21.32-27.62 21.24V90.39l55.32-42.74L-66.16 5Zm52.59 0V26.41L14.05 47.74-13.56 68.97V90.39L41.76 47.65-13.56 5ZM39.03 5V26.41L66.65 47.74 39.03 68.97V90.39L94.35 47.65 39.03 5Z" clip-path="url(#k)"></path><path fill="#000000" d="M5 29.47H41.69V66.16H5Z" clip-path="url(#l)"></path></g></g></svg>