<?xml version="1.0" encoding="UTF-8" standalone="no"?><svg xmlns="http://www.w3.org/2000/svg" xmlns:xlink="http://www.w3.org/1999/xlink" contentScriptType="text/ecmascript" zoomAndPan="magnify" contentStyleType="text/css" stroke="#000000" stroke-linecap="square" version="1" width="8" stroke-miterlimit="10" fill="#000000" preserveAspectRatio="xMidYMid meet" viewBox="0 0 7.5 7.5" height="8"><defs><clipPath id="a"><path d="M0 0V7.5H7.5V0Z"></path></clipPath><clipPath id="b" clip-path="url(#a)"><path d="M-74.27 404.69h1440v-810h-1440Z"></path></clipPath><clipPath id="c" clip-path="url(#b)"><path d="M-74.27-405.31h1440v810h-1440Z"></path></clipPath><clipPath id="d" clip-path="url(#c)"><path d="M-74.27-405.31h1440v810h-1440Z"></path></clipPath><clipPath id="e" clip-path="url(#d)"><path d="M0 0H7.53V7.53H0Z"></path></clipPath><clipPath id="f" clip-path="url(#e)"><path d="M7.5 3.75l-.1.98c-.38.92-.65 1.32-1 1.68l-.76.62c-.92.38-1.4.48-1.89.48l-.98-.1c-.92-.38-1.32-.65-1.68-1L.48 5.64C.1 4.73 0 4.25 0 3.75l.1-.98c.38-.92.65-1.32 1-1.68L1.86.48C2.77.1 3.25 0 3.75 0l.98.1c.92.38 1.32.65 1.68 1l.62.76c.38.92.48 1.4.48 1.89H7.5Z"></path></clipPath><clipPath id="g" clip-path="url(#f)"><path d="M-.11-.19H7.57V7.73H-.11Z"></path></clipPath></defs><g><g><path d="M0 0H7.5V7.5H0Z" stroke="none" clip-path="url(#g)"></path></g></g></svg>