<?xml version="1.0" encoding="UTF-8" standalone="no"?><svg xmlns="http://www.w3.org/2000/svg" xmlns:xlink="http://www.w3.org/1999/xlink" contentScriptType="text/ecmascript" zoomAndPan="magnify" contentStyleType="text/css" stroke="#000000" stroke-linecap="square" version="1" width="5" stroke-miterlimit="10" fill="#000000" preserveAspectRatio="xMidYMid meet" viewBox="0 0 4.5 4.5" height="5"><defs><clipPath id="a"><path d="M0 0V4.5H4.5V0Z"></path></clipPath><clipPath id="b" clip-path="url(#a)"><path d="M-88.48 100.24h1440v-810h-1440Z"></path></clipPath><clipPath id="c" clip-path="url(#b)"><path d="M-88.48-709.76h1440v810h-1440Z"></path></clipPath><clipPath id="d" clip-path="url(#c)"><path d="M-88.48-709.76h1440v810h-1440Z"></path></clipPath><clipPath id="e" clip-path="url(#d)"><path d="M0 0H4.5V4.5H0Z"></path></clipPath><clipPath id="f" clip-path="url(#e)"><path d="M4.5 2.25l-.06.59-.39.79c-.42.42-.67.58-.94.7l-.56.17-.88-.06c-.55-.23-.79-.39-1.01-.6L.29 3.39 0 2.55c0-.6.06-.88.17-1.16L.45.87 1.11.29C1.66.06 1.95 0 2.25 0l.59.06.79.39c.42.42.58.67.7.94l.17.56v.3Z"></path></clipPath><clipPath id="g" clip-path="url(#f)"><path d="M-.16-.08h4.8v4.8H-.16Z"></path></clipPath></defs><g><g><path d="M0 0H4.5V4.5H0Z" stroke="none" clip-path="url(#g)"></path></g></g></svg>